<mxfile host="app.diagrams.net" modified="2024-06-25T01:51:15.092Z" agent="Mozilla/5.0 (Windows NT 10.0; Win64; x64) AppleWebKit/537.36 (KHTML, like Gecko) Chrome/126.0.0.0 Safari/537.36 Edg/126.0.0.0" etag="tN9sXz4bfPCk349_CLtS" version="24.6.2" type="onedrive">
  <diagram name="ページ1" id="nYYCd5v0VlLh4pIHmZOA">
    <mxGraphModel grid="1" page="0" gridSize="10" guides="1" tooltips="1" connect="1" arrows="1" fold="1" pageScale="1" pageWidth="827" pageHeight="1169" math="0" shadow="0">
      <root>
        <mxCell id="0" />
        <mxCell id="1" parent="0" />
        <mxCell id="fkjB09EhC0DecZm78Nva-8" style="edgeStyle=none;curved=1;rounded=0;orthogonalLoop=1;jettySize=auto;html=1;exitX=0.5;exitY=1;exitDx=0;exitDy=0;entryX=0.5;entryY=0;entryDx=0;entryDy=0;fontSize=12;startSize=8;endSize=8;" edge="1" parent="1" source="fkjB09EhC0DecZm78Nva-1" target="fkjB09EhC0DecZm78Nva-3">
          <mxGeometry relative="1" as="geometry" />
        </mxCell>
        <mxCell id="fkjB09EhC0DecZm78Nva-1" value="関数delete_player(players, number)&lt;div&gt;開始&lt;/div&gt;" style="rounded=0;whiteSpace=wrap;html=1;" vertex="1" parent="1">
          <mxGeometry x="80" y="-120" width="120" height="60" as="geometry" />
        </mxCell>
        <mxCell id="fkjB09EhC0DecZm78Nva-11" style="edgeStyle=none;curved=1;rounded=0;orthogonalLoop=1;jettySize=auto;html=1;exitX=0.5;exitY=1;exitDx=0;exitDy=0;entryX=0.5;entryY=0;entryDx=0;entryDy=0;fontSize=12;startSize=8;endSize=8;" edge="1" parent="1" source="fkjB09EhC0DecZm78Nva-2" target="fkjB09EhC0DecZm78Nva-5">
          <mxGeometry relative="1" as="geometry" />
        </mxCell>
        <mxCell id="fkjB09EhC0DecZm78Nva-2" value="print(削除しました)" style="rounded=1;whiteSpace=wrap;html=1;" vertex="1" parent="1">
          <mxGeometry x="80" y="190" width="120" height="60" as="geometry" />
        </mxCell>
        <mxCell id="fkjB09EhC0DecZm78Nva-3" value="for&amp;nbsp;&amp;nbsp;&lt;span style=&quot;background-color: initial;&quot;&gt;i&amp;nbsp;&amp;nbsp;&lt;/span&gt;&lt;span style=&quot;background-color: initial;&quot;&gt;←（len(players)）&amp;nbsp;&lt;/span&gt;" style="rhombus;whiteSpace=wrap;html=1;" vertex="1" parent="1">
          <mxGeometry x="80" y="-30" width="120" height="80" as="geometry" />
        </mxCell>
        <mxCell id="fkjB09EhC0DecZm78Nva-10" style="edgeStyle=none;curved=1;rounded=0;orthogonalLoop=1;jettySize=auto;html=1;exitX=0.5;exitY=1;exitDx=0;exitDy=0;entryX=0.5;entryY=0;entryDx=0;entryDy=0;fontSize=12;startSize=8;endSize=8;" edge="1" parent="1" source="fkjB09EhC0DecZm78Nva-4" target="fkjB09EhC0DecZm78Nva-2">
          <mxGeometry relative="1" as="geometry" />
        </mxCell>
        <mxCell id="fkjB09EhC0DecZm78Nva-4" value="if players[i] == number" style="rhombus;whiteSpace=wrap;html=1;" vertex="1" parent="1">
          <mxGeometry x="80" y="80" width="120" height="80" as="geometry" />
        </mxCell>
        <mxCell id="fkjB09EhC0DecZm78Nva-12" style="edgeStyle=none;curved=1;rounded=0;orthogonalLoop=1;jettySize=auto;html=1;exitX=0.5;exitY=1;exitDx=0;exitDy=0;entryX=0.5;entryY=0;entryDx=0;entryDy=0;fontSize=12;startSize=8;endSize=8;" edge="1" parent="1" source="fkjB09EhC0DecZm78Nva-5" target="fkjB09EhC0DecZm78Nva-6">
          <mxGeometry relative="1" as="geometry" />
        </mxCell>
        <mxCell id="fkjB09EhC0DecZm78Nva-5" value="del players[i]" style="rounded=1;whiteSpace=wrap;html=1;" vertex="1" parent="1">
          <mxGeometry x="80" y="280" width="120" height="60" as="geometry" />
        </mxCell>
        <mxCell id="fkjB09EhC0DecZm78Nva-6" value="値を返す" style="rounded=1;whiteSpace=wrap;html=1;" vertex="1" parent="1">
          <mxGeometry x="80" y="370" width="120" height="60" as="geometry" />
        </mxCell>
        <mxCell id="fkjB09EhC0DecZm78Nva-7" value="print(該当者はいません)" style="rounded=1;whiteSpace=wrap;html=1;" vertex="1" parent="1">
          <mxGeometry x="-100" y="-10" width="120" height="60" as="geometry" />
        </mxCell>
        <mxCell id="fkjB09EhC0DecZm78Nva-9" style="edgeStyle=none;curved=1;rounded=0;orthogonalLoop=1;jettySize=auto;html=1;exitX=0.5;exitY=1;exitDx=0;exitDy=0;entryX=0.511;entryY=0.096;entryDx=0;entryDy=0;entryPerimeter=0;fontSize=12;startSize=8;endSize=8;" edge="1" parent="1" source="fkjB09EhC0DecZm78Nva-3" target="fkjB09EhC0DecZm78Nva-4">
          <mxGeometry relative="1" as="geometry" />
        </mxCell>
        <mxCell id="fkjB09EhC0DecZm78Nva-14" value="" style="strokeWidth=2;html=1;shape=mxgraph.flowchart.annotation_1;align=left;pointerEvents=1;" vertex="1" parent="1">
          <mxGeometry x="30" y="120" width="50" height="280" as="geometry" />
        </mxCell>
        <mxCell id="fkjB09EhC0DecZm78Nva-15" value="" style="endArrow=classic;html=1;rounded=0;fontSize=12;startSize=8;endSize=8;curved=1;entryX=1;entryY=0;entryDx=0;entryDy=0;entryPerimeter=0;exitX=0;exitY=0;exitDx=0;exitDy=0;exitPerimeter=0;" edge="1" parent="1" source="fkjB09EhC0DecZm78Nva-14" target="fkjB09EhC0DecZm78Nva-14">
          <mxGeometry width="50" height="50" relative="1" as="geometry">
            <mxPoint x="180" y="260" as="sourcePoint" />
            <mxPoint x="230" y="210" as="targetPoint" />
          </mxGeometry>
        </mxCell>
        <mxCell id="fkjB09EhC0DecZm78Nva-16" value="" style="strokeWidth=2;html=1;shape=mxgraph.flowchart.annotation_1;align=left;pointerEvents=1;direction=west;" vertex="1" parent="1">
          <mxGeometry x="200" y="10" width="50" height="110" as="geometry" />
        </mxCell>
        <mxCell id="fkjB09EhC0DecZm78Nva-17" value="" style="endArrow=classic;html=1;rounded=0;fontSize=12;startSize=8;endSize=8;curved=1;entryX=1;entryY=1;entryDx=0;entryDy=0;entryPerimeter=0;exitX=0;exitY=1;exitDx=0;exitDy=0;exitPerimeter=0;" edge="1" parent="1" source="fkjB09EhC0DecZm78Nva-16" target="fkjB09EhC0DecZm78Nva-16">
          <mxGeometry width="50" height="50" relative="1" as="geometry">
            <mxPoint x="180" y="260" as="sourcePoint" />
            <mxPoint x="230" y="210" as="targetPoint" />
          </mxGeometry>
        </mxCell>
        <mxCell id="fkjB09EhC0DecZm78Nva-21" value="" style="endArrow=classic;html=1;rounded=0;fontSize=12;startSize=8;endSize=8;curved=1;entryX=0.5;entryY=0;entryDx=0;entryDy=0;" edge="1" parent="1" target="fkjB09EhC0DecZm78Nva-7">
          <mxGeometry width="50" height="50" relative="1" as="geometry">
            <mxPoint x="140" y="-60" as="sourcePoint" />
            <mxPoint x="170" y="180" as="targetPoint" />
          </mxGeometry>
        </mxCell>
        <mxCell id="fkjB09EhC0DecZm78Nva-22" value="終了" style="rounded=0;whiteSpace=wrap;html=1;" vertex="1" parent="1">
          <mxGeometry x="-100" y="80" width="120" height="60" as="geometry" />
        </mxCell>
        <mxCell id="fkjB09EhC0DecZm78Nva-23" value="" style="endArrow=classic;html=1;rounded=0;fontSize=12;startSize=8;endSize=8;curved=1;exitX=0.5;exitY=1;exitDx=0;exitDy=0;entryX=0.5;entryY=0;entryDx=0;entryDy=0;" edge="1" parent="1" source="fkjB09EhC0DecZm78Nva-7" target="fkjB09EhC0DecZm78Nva-22">
          <mxGeometry width="50" height="50" relative="1" as="geometry">
            <mxPoint x="120" y="230" as="sourcePoint" />
            <mxPoint x="170" y="180" as="targetPoint" />
          </mxGeometry>
        </mxCell>
      </root>
    </mxGraphModel>
  </diagram>
</mxfile>
